<svg width="440" height="166" viewBox="0 0 440 166" fill="none" xmlns="http://www.w3.org/2000/svg">
<path d="M80.8458 140.5L52.9093 94.2565L113.771 106L106.787 67L185.608 94.2565L216.537 32L236.991 84.8707L325.789 51L293.862 94.2565H404.61L354.723 140.5" stroke="#FFC20D" stroke-width="14" stroke-linecap="square"/>
<path d="M28.6686 30.284L76.9494 75.1189L74.0044 77.3429L28.6686 30.284Z" fill="#FFC20D"/>
<path d="M96.0553 117.915L104.01 139.93L106.6 140.781V144H94.8343V140.781L97.6093 139.93L96.7213 137.155H88.5073L87.5823 139.893L90.4683 140.781V144H79.2943V140.781L81.9953 139.93L90.1353 118.026L96.0553 117.915ZM92.7253 124.427L89.8023 133.196H95.5003L92.7253 124.427ZM119.059 140.781V144H108.329V140.781L111.104 139.856V122.281L108.329 121.171V118.1L117.209 117.915L127.199 135.009V122.281L124.498 121.171V118.1L135.043 117.915V121.171L132.268 122.281V144H126.089L116.173 127.239V139.856L119.059 140.781ZM141.265 144V140.781L144.299 139.856V122.281H140.784L139.859 125.796H136.455V118.026L157.915 117.915V125.796H154.474L153.549 122.281H150.034V139.856L153.105 140.781V144H141.265ZM170.85 140.781V144H159.565V140.781L162.34 139.856V122.281L159.565 121.171V118.1L170.85 117.915V121.171L168.075 122.281V139.856L170.85 140.781ZM182.024 117.915H185.909C188.401 117.915 190.374 118.458 191.829 119.543C193.309 120.604 194.049 122.195 194.049 124.316C194.049 127.449 192.569 129.484 189.609 130.421C193.137 131.432 194.9 133.406 194.9 136.341C194.9 141.447 191.694 144 185.28 144H173.625V140.781C174.242 140.559 175.167 140.251 176.4 139.856V122.281L173.625 121.171V118.1L182.024 117.915ZM184.17 132.456H182.024V139.671H185.095C186.378 139.671 187.352 139.375 188.018 138.783C188.709 138.191 189.054 137.377 189.054 136.341C189.054 135.009 188.66 134.035 187.87 133.418C187.081 132.777 185.848 132.456 184.17 132.456ZM182.024 122.281V128.571H184.17C186.933 128.571 188.314 127.424 188.314 125.13C188.314 124.193 188.018 123.49 187.426 123.021C186.859 122.528 186.107 122.281 185.169 122.281H182.024ZM210.708 117.471C214.408 117.471 217.269 118.63 219.292 120.949C221.339 123.243 222.363 126.462 222.363 130.606C222.363 134.775 221.216 138.129 218.922 140.67C216.652 143.211 213.668 144.481 209.968 144.481C206.268 144.481 203.431 143.346 201.458 141.077C199.484 138.808 198.498 135.502 198.498 131.161C198.498 126.918 199.583 123.576 201.754 121.134C203.949 118.692 206.934 117.471 210.708 117.471ZM210.523 122.096C208.599 122.096 207.143 122.787 206.157 124.168C205.17 125.525 204.677 127.794 204.677 130.976C204.677 134.01 205.121 136.255 206.009 137.71C206.921 139.141 208.303 139.856 210.153 139.856C212.101 139.856 213.581 139.153 214.593 137.747C215.629 136.316 216.147 133.998 216.147 130.791C216.147 127.782 215.678 125.586 214.741 124.205C213.803 122.799 212.397 122.096 210.523 122.096ZM237.047 140.781V144H225.873V140.781L228.648 139.856V122.281L225.873 121.171V118.1L234.383 117.915H237.195C240.279 117.915 242.647 118.556 244.299 119.839C245.977 121.097 246.815 122.972 246.815 125.463C246.815 128.744 245.422 131.075 242.634 132.456C243.251 133.171 243.769 133.973 244.188 134.861L246.667 139.93L249.183 140.781V144H242.338L239.23 137.155C238.564 135.675 238.034 134.738 237.639 134.343C237.269 133.948 236.616 133.751 235.678 133.751H234.383V139.856L237.047 140.781ZM234.383 122.281V129.866H236.492C237.948 129.866 239.082 129.533 239.896 128.867C240.71 128.176 241.117 127.214 241.117 125.981C241.117 124.871 240.784 123.983 240.118 123.317C239.452 122.626 238.552 122.281 237.417 122.281H234.383ZM260.087 122.281V128.46H267.561V132.53H260.087V139.671H266.636L267.487 136.6H270.891V144H251.577V140.781L254.352 139.856V122.281L251.577 121.171V118.1L260.087 117.915H270.447V125.056H267.006L266.081 122.281H260.087ZM274.663 144V140.781L277.438 139.856V122.281L274.663 121.171V118.1L283.173 117.915H286.688C290.437 117.915 293.336 119 295.383 121.171C297.43 123.342 298.454 126.487 298.454 130.606C298.454 134.75 297.344 138.018 295.124 140.411C292.904 142.804 289.907 144 286.133 144H274.663ZM283.173 122.281V139.671H286.244C288.168 139.671 289.648 138.993 290.684 137.636C291.72 136.255 292.238 133.973 292.238 130.791C292.238 127.782 291.745 125.611 290.758 124.279C289.796 122.947 288.378 122.281 286.503 122.281H283.173ZM314.011 117.471C317.711 117.471 320.573 118.63 322.595 120.949C324.643 123.243 325.666 126.462 325.666 130.606C325.666 134.775 324.519 138.129 322.225 140.67C319.956 143.211 316.971 144.481 313.271 144.481C309.571 144.481 306.735 143.346 304.761 141.077C302.788 138.808 301.801 135.502 301.801 131.161C301.801 126.918 302.887 123.576 305.057 121.134C307.253 118.692 310.237 117.471 314.011 117.471ZM313.826 122.096C311.902 122.096 310.447 122.787 309.46 124.168C308.474 125.525 307.98 127.794 307.98 130.976C307.98 134.01 308.424 136.255 309.312 137.71C310.225 139.141 311.606 139.856 313.456 139.856C315.405 139.856 316.885 139.153 317.896 137.747C318.932 136.316 319.45 133.998 319.45 130.791C319.45 127.782 318.982 125.586 318.044 124.205C317.107 122.799 315.701 122.096 313.826 122.096ZM339.611 140.781V144H329.066V140.781L331.841 139.856V122.281L329.066 121.171V118.1L338.612 117.915L344.162 130.236L349.971 118.1L358.851 117.915V121.171L356.187 122.281V139.856L358.962 140.781V144H347.936V140.781L350.822 139.856V125.833C350.378 126.992 349.86 128.201 349.268 129.459C348.701 130.692 348.047 132.049 347.307 133.529C346.592 134.984 346.037 136.131 345.642 136.97L341.646 137.155L337.391 128.386L336.762 126.462V139.856L339.611 140.781Z" fill="#241B02"/>
<path d="M320.687 12.4388L269.557 54.8676L266.917 52.3755L320.687 12.4388Z" fill="#FFC20D"/>
<path d="M426.585 33.685L342.626 75.3487L340.761 72.4302L426.585 33.685Z" fill="#FFC20D"/>
<path d="M427.539 138.802L381.238 145.739L380.752 142.618L427.539 138.802Z" fill="#FFC20D"/>
<path d="M13.6896 128.718L58.6467 140.506L57.4524 143.483L13.6896 128.718Z" fill="#FFC20D"/>
<path d="M157.415 23.6258L179.649 55.7323L176.197 57.3271L157.415 23.6258Z" fill="#FFC20D"/>
</svg>
